<?xml version="1.0" encoding="utf-8"?>
<!-- Generator: Adobe Illustrator 21.0.0, SVG Export Plug-In . SVG Version: 6.00 Build 0)  -->
<svg version="1.1" id="Слой_1" xmlns="http://www.w3.org/2000/svg" xmlns:xlink="http://www.w3.org/1999/xlink" x="0px" y="0px"
	 viewBox="0 0 1000 1000" enable-background="new 0 0 1000 1000" xml:space="preserve">
<g>
	<g>
		<linearGradient id="SVGID_1_" gradientUnits="userSpaceOnUse" x1="551.8337" y1="430.5999" x2="551.8337" y2="581.4307">
			<stop  offset="0" style="stop-color:#fff"/>
			<stop  offset="1" style="stop-color:#fff"/>
		</linearGradient>
		<path fill="url(#SVGID_1_)" d="M561.6,546.6c0,2.8-0.1,5.6-0.3,8.6c-0.2,3-0.6,5.8-1.4,8.4c-0.9,3.4-2.5,6.6-4.8,9.4
			c-2.3,2.8-5.1,5.3-8.3,7.4c-3.2,2.1-6.9,3.7-10.9,4.9c-2.8,0.8-5.8,1.4-8.8,1.6v13c4.5-0.3,8.8-1,13-2.1
			c5.4-1.4,10.4-3.5,14.9-6.2c4.5-2.7,8.4-6,11.7-9.8c3.3-3.8,5.7-8,7.4-12.7c1.2-3.4,1.9-7.1,2.2-11.2c0.3-4,0.5-8.2,0.5-12.4
			v-92.1h-15V546.6z"/>
		<linearGradient id="SVGID_2_" gradientUnits="userSpaceOnUse" x1="494.1942" y1="430.5999" x2="494.1942" y2="581.4307">
			<stop  offset="0" style="stop-color:#fff"/>
			<stop  offset="1" style="stop-color:#fff"/>
		</linearGradient>
		<path fill="url(#SVGID_2_)" d="M499.3,580.4c-3.2-2.1-6-4.6-8.3-7.4c-2.3-2.8-4-6-5.1-9.4c-0.8-2.5-1.3-5.3-1.5-8.2
			c-0.2-3-0.3-5.9-0.3-8.8v-93.2H469v92.3c0,4.3,0.2,8.4,0.6,12.5c0.4,4.1,1.2,7.9,2.4,11.3c1.6,4.6,4.1,8.9,7.4,12.6
			c3.3,3.8,7.2,7,11.7,9.6c4.5,2.6,9.4,4.6,14.9,6c4.3,1.2,8.8,1.9,13.6,2.1V587c-3.2-0.3-6.3-0.8-9.2-1.7
			C506.1,584.1,502.5,582.5,499.3,580.4z"/>
		<linearGradient id="SVGID_3_" gradientUnits="userSpaceOnUse" x1="654.8599" y1="430.5999" x2="654.8599" y2="581.4307">
			<stop  offset="0" style="stop-color:#fff"/>
			<stop  offset="1" style="stop-color:#fff"/>
		</linearGradient>
		<path fill="url(#SVGID_3_)" d="M695.9,545.9c-2,6.2-4.9,11.8-8.5,16.7c-3.6,4.9-8,9.2-13.1,12.8c-5.1,3.6-10.7,6.1-16.8,7.7
			c-3,0.8-6.3,1.4-9.9,1.6s-7.4,0.4-11.5,0.4h-25.4v-119h25.4c2.9,0,6.1,0.1,9.7,0.3c3.6,0.2,6.8,0.6,9.5,1.3
			c6.5,1.5,12.4,3.9,17.7,7.2c5.4,3.3,10,7.4,13.8,12.4c3.8,5,6.8,10.7,8.9,17.2c1.8,5.7,2.8,11.9,3,18.7H714
			c-0.2-8.7-1.6-16.8-4.4-24.1c-3-8-7-15-12.2-21.1c-5.2-6.1-11.2-11-18.2-14.9c-6.9-3.8-14.4-6.5-22.3-8c-3.4-0.6-7-1.1-10.8-1.4
			c-3.8-0.3-7-0.4-9.6-0.4h-40.8v144.7h41.2c4.6,0,8.9-0.1,12.8-0.4c3.9-0.3,7.6-0.9,11-1.8c7.5-1.9,14.6-5,21.1-9.2
			c6.5-4.2,12.2-9.4,16.9-15.5c4.7-6.1,8.5-13,11.2-20.6c2.2-6.3,3.5-13.1,3.9-20.4h-15.1C698.5,535.7,697.6,540.9,695.9,545.9z"/>
		<linearGradient id="SVGID_4_" gradientUnits="userSpaceOnUse" x1="760.2322" y1="430.5999" x2="760.2322" y2="581.4307">
			<stop  offset="0" style="stop-color:#fff"/>
			<stop  offset="1" style="stop-color:#fff"/>
		</linearGradient>
		<polygon fill="url(#SVGID_4_)" points="723.6,453.4 788.7,598.1 796.8,579.9 740.1,453.4 		"/>
		<linearGradient id="SVGID_5_" gradientUnits="userSpaceOnUse" x1="822.9545" y1="430.5999" x2="822.9545" y2="581.4307">
			<stop  offset="0" style="stop-color:#fff"/>
			<stop  offset="1" style="stop-color:#fff"/>
		</linearGradient>
		<polygon fill="url(#SVGID_5_)" points="792.7,554.2 800.8,570.9 853.3,453.4 837,453.4 		"/>
		<linearGradient id="SVGID_6_" gradientUnits="userSpaceOnUse" x1="879.9052" y1="430.5999" x2="879.9052" y2="581.4307">
			<stop  offset="0" style="stop-color:#fff"/>
			<stop  offset="1" style="stop-color:#fff"/>
		</linearGradient>
		<rect x="872.4" y="453.4" fill="url(#SVGID_6_)" width="15.1" height="144.7"/>
		<linearGradient id="SVGID_7_" gradientUnits="userSpaceOnUse" x1="953.2793" y1="430.5999" x2="953.2793" y2="581.4307">
			<stop  offset="0" style="stop-color:#fff"/>
			<stop  offset="1" style="stop-color:#fff"/>
		</linearGradient>
		<polygon fill="url(#SVGID_7_)" points="961,465.3 1000,465.3 1000,452.3 906.6,452.3 906.6,465.3 945.7,465.3 945.7,465.3 
			961,465.3 		"/>
		<linearGradient id="SVGID_8_" gradientUnits="userSpaceOnUse" x1="953.3768" y1="430.5999" x2="953.3768" y2="581.4307">
			<stop  offset="0" style="stop-color:#fff"/>
			<stop  offset="1" style="stop-color:#fff"/>
		</linearGradient>
		<rect x="945.7" y="472.2" fill="url(#SVGID_8_)" width="15.3" height="125.9"/>
		<g>
			<linearGradient id="SVGID_9_" gradientUnits="userSpaceOnUse" x1="343.2654" y1="430.5999" x2="343.2654" y2="581.4307">
				<stop  offset="0" style="stop-color:#fff"/>
				<stop  offset="1" style="stop-color:#fff"/>
			</linearGradient>
			<path fill="url(#SVGID_9_)" d="M316.3,529.7c-0.8-16.7,5.1-32.5,16.6-44.6c11.5-12.1,27-18.7,43.7-18.7h6.4v-12.8h-6.4
				c-20.2,0-39,8-52.9,22.6c-13.1,13.7-20.3,31.6-20.3,50.5c0,1.2,0,2.3,0.1,3.5c1.7,37.1,32,67.5,69,69.6v-12.8
				C342.3,585,317.7,560.1,316.3,529.7z"/>
			<linearGradient id="SVGID_10_" gradientUnits="userSpaceOnUse" x1="407.5565" y1="430.5999" x2="407.5565" y2="581.4307">
				<stop  offset="0" style="stop-color:#fff"/>
				<stop  offset="1" style="stop-color:#fff"/>
			</linearGradient>
			<path fill="url(#SVGID_10_)" d="M365.2,520.5v12.8h71.5c-1.5,14.2-8,27.4-18.4,37.3c-10.3,9.9-23.6,15.6-37.6,16.6v12.8
				c17.4-1,33.7-7.9,46.4-20.1c14.6-14,22.6-32.8,22.6-52.9v-6.4H365.2z"/>
		</g>
	</g>
	<linearGradient id="SVGID_11_" gradientUnits="userSpaceOnUse" x1="131.1825" y1="460.0216" x2="131.1825" y2="460.0216">
		<stop  offset="0" style="stop-color:#fff"/>
		<stop  offset="1" style="stop-color:#fff"/>
	</linearGradient>
	<path fill="none" stroke="url(#SVGID_11_)" stroke-width="4" stroke-miterlimit="10" d="M131.2,460"/>
	<g>
		
			<linearGradient id="SVGID_12_" gradientUnits="userSpaceOnUse" x1="-727.8107" y1="2482.5537" x2="-465.4457" y2="2482.5537" gradientTransform="matrix(6.123234e-17 1 -1 6.123234e-17 2613.7363 1122.3467)">
			<stop  offset="0" style="stop-color:#fff"/>
			<stop  offset="1" style="stop-color:#fff"/>
		</linearGradient>
		<path fill="url(#SVGID_12_)" d="M0,525.7c0-72.3,58.9-131.2,131.2-131.2s131.2,58.9,131.2,131.2s-58.8,131.2-131.2,131.2
			S0,598.1,0,525.7z M247.5,525.7c0-64.1-52.2-116.3-116.3-116.3c-64.1,0-116.3,52.2-116.3,116.3c0,64.1,52.2,116.3,116.3,116.3
			C195.3,642,247.5,589.8,247.5,525.7z"/>
	</g>
	<g>
		<linearGradient id="SVGID_13_" gradientUnits="userSpaceOnUse" x1="43.5937" y1="525.7184" x2="218.7713" y2="525.7184">
			<stop  offset="0" style="stop-color:#fff"/>
			<stop  offset="1" style="stop-color:#fff"/>
		</linearGradient>
		<path fill="url(#SVGID_13_)" d="M131.2,613.3c-48.3,0-87.6-39.3-87.6-87.6h14.9c0,40.1,32.6,72.7,72.7,72.7
			c40.1,0,72.7-32.6,72.7-72.7c0-37.6-28.6-68.6-65.3-72.3v92.3h-14.9V438.1h7.4c48.3,0,87.6,39.3,87.6,87.6
			C218.8,574,179.5,613.3,131.2,613.3z"/>
	</g>
</g>
</svg>
